<svg width="20" height="20" viewBox="0 0 20 20" fill="none" xmlns="http://www.w3.org/2000/svg">
<g clip-path="url(#clip0_611_8329)">
<path d="M3.14118 3.9051V1.61938H4.66499V3.9051H6.95071V5.42891H4.66499V7.71462H3.14118V5.42891H0.855469V3.9051H3.14118ZM5.4269 8.47653V6.19081H7.71261V3.9051H13.0459L14.4402 5.42891H16.8555C17.6936 5.42891 18.3793 6.11462 18.3793 6.95272V16.0956C18.3793 16.9337 17.6936 17.6194 16.8555 17.6194H4.66499C3.8269 17.6194 3.14118 16.9337 3.14118 16.0956V8.47653H5.4269ZM10.7602 15.3337C12.8631 15.3337 14.5698 13.627 14.5698 11.5241C14.5698 9.42129 12.8631 7.71462 10.7602 7.71462C8.65737 7.71462 6.95071 9.42129 6.95071 11.5241C6.95071 13.627 8.65737 15.3337 10.7602 15.3337ZM8.32213 11.5241C8.32213 12.8727 9.41166 13.9622 10.7602 13.9622C12.1088 13.9622 13.1983 12.8727 13.1983 11.5241C13.1983 10.1756 12.1088 9.08605 10.7602 9.08605C9.41166 9.08605 8.32213 10.1756 8.32213 11.5241Z" fill="#FBFBFB"/>
</g>
<defs>
<clipPath id="clip0_611_8329">
<rect width="18.2857" height="18.2857" fill="white" transform="translate(0.855469 0.857422)"/>
</clipPath>
</defs>
</svg>
