<svg width="21" height="20" viewBox="0 0 21 20" fill="none" xmlns="http://www.w3.org/2000/svg">
<g clip-path="url(#clip0_611_10071)">
<path d="M13.3368 -0.000236031C13.1829 0.00591782 13.0344 0.0336101 12.8798 0.0720717L2.42291 2.61976C1.18599 2.92284 0.412141 4.17053 0.715987 5.40823L2.18214 11.3944C2.27099 11.7509 2.44397 12.081 2.68662 12.357C2.92926 12.633 3.23449 12.8468 3.57676 12.9805V11.5382C3.57676 9.41746 5.30214 7.69207 7.42291 7.69207H17.1106L15.6683 1.75438C15.5407 1.23824 15.2391 0.781879 14.8142 0.46225C14.3894 0.142621 13.8673 -0.0207225 13.336 -0.000236031H13.3368ZM14.2737 3.31746L14.8991 5.93746L12.3029 6.56207L11.6537 3.96592L14.2737 3.31746ZM7.42291 9.23053C6.14906 9.23053 5.11522 10.2644 5.11522 11.5382V17.6921C5.11522 18.9659 6.14906 19.9998 7.42291 19.9998H18.1921C19.466 19.9998 20.4998 18.9659 20.4998 17.6921V11.5382C20.4998 10.2644 19.466 9.23053 18.1921 9.23053H7.42291ZM7.42291 10.4567H18.1921C18.7852 10.4567 19.2737 10.9451 19.2737 11.5382V12.3075H6.34137V11.5382C6.34137 10.9451 6.82983 10.4567 7.42291 10.4567ZM6.34137 14.6151H19.2737V17.6921C19.2737 18.2851 18.7852 18.7736 18.1921 18.7736H7.42291C7.13657 18.772 6.86241 18.6575 6.65993 18.455C6.45745 18.2526 6.34299 17.9784 6.34137 17.6921V14.6151Z" fill="#FBFBFB"/>
</g>
<defs>
<clipPath id="clip0_611_10071">
<rect width="20" height="20" fill="white" transform="translate(0.5)"/>
</clipPath>
</defs>
</svg>
