<svg width="18" height="17" viewBox="0 0 18 17" fill="none" xmlns="http://www.w3.org/2000/svg">
<path d="M7.5 0C6.43913 0 5.42172 0.421427 4.67157 1.17157C3.92143 1.92172 3.5 2.93913 3.5 4C3.5 5.06087 3.92143 6.07828 4.67157 6.82843C5.42172 7.57857 6.43913 8 7.5 8C8.56087 8 9.57828 7.57857 10.3284 6.82843C11.0786 6.07828 11.5 5.06087 11.5 4C11.5 2.93913 11.0786 1.92172 10.3284 1.17157C9.57828 0.421427 8.56087 0 7.5 0Z" fill="#FBFBFB" fill-opacity="0.3"/>
<path d="M2.509 9.00002C2.24564 8.99896 1.98466 9.04991 1.74102 9.14994C1.49739 9.24996 1.2759 9.3971 1.08926 9.58291C0.902614 9.76872 0.754485 9.98954 0.653366 10.2327C0.552248 10.4759 0.50013 10.7367 0.5 11C0.5 12.691 1.333 13.966 2.635 14.797C3.917 15.614 5.645 16 7.5 16C7.91 16 8.316 15.981 8.71 15.943C7.92493 14.9674 7.49787 13.7523 7.5 12.5C7.5 11.17 7.972 9.95002 8.757 9.00002H2.51H2.509Z" fill="#FBFBFB" fill-opacity="0.3"/>
<path d="M13 17C14.1935 17 15.3381 16.5259 16.182 15.682C17.0259 14.8381 17.5 13.6935 17.5 12.5C17.5 11.3065 17.0259 10.1619 16.182 9.31802C15.3381 8.47411 14.1935 8 13 8C11.8065 8 10.6619 8.47411 9.81802 9.31802C8.97411 10.1619 8.5 11.3065 8.5 12.5C8.5 13.6935 8.97411 14.8381 9.81802 15.682C10.6619 16.5259 11.8065 17 13 17ZM13 10C13.1326 10 13.2598 10.0527 13.3536 10.1464C13.4473 10.2402 13.5 10.3674 13.5 10.5V12H15C15.1326 12 15.2598 12.0527 15.3536 12.1464C15.4473 12.2402 15.5 12.3674 15.5 12.5C15.5 12.6326 15.4473 12.7598 15.3536 12.8536C15.2598 12.9473 15.1326 13 15 13H13.5V14.5C13.5 14.6326 13.4473 14.7598 13.3536 14.8536C13.2598 14.9473 13.1326 15 13 15C12.8674 15 12.7402 14.9473 12.6464 14.8536C12.5527 14.7598 12.5 14.6326 12.5 14.5V13H11C10.8674 13 10.7402 12.9473 10.6464 12.8536C10.5527 12.7598 10.5 12.6326 10.5 12.5C10.5 12.3674 10.5527 12.2402 10.6464 12.1464C10.7402 12.0527 10.8674 12 11 12H12.5V10.5C12.5 10.3674 12.5527 10.2402 12.6464 10.1464C12.7402 10.0527 12.8674 10 13 10Z" fill="#FBFBFB" fill-opacity="0.3"/>
</svg>
