<svg width="21" height="20" viewBox="0 0 21 20" fill="none" xmlns="http://www.w3.org/2000/svg">
<path d="M9.5 2C8.43913 2 7.42172 2.42143 6.67157 3.17157C5.92143 3.92172 5.5 4.93913 5.5 6C5.5 7.06087 5.92143 8.07828 6.67157 8.82843C7.42172 9.57857 8.43913 10 9.5 10C10.5609 10 11.5783 9.57857 12.3284 8.82843C13.0786 8.07828 13.5 7.06087 13.5 6C13.5 4.93913 13.0786 3.92172 12.3284 3.17157C11.5783 2.42143 10.5609 2 9.5 2Z" fill="#FBFBFB"/>
<path d="M4.509 11C4.24564 10.999 3.98466 11.0499 3.74102 11.1499C3.49739 11.25 3.2759 11.3971 3.08926 11.5829C2.90261 11.7687 2.75448 11.9895 2.65337 12.2327C2.55225 12.4759 2.50013 12.7367 2.5 13C2.5 14.691 3.333 15.966 4.635 16.797C5.917 17.614 7.645 18 9.5 18C9.91 18 10.316 17.981 10.71 17.943C9.92493 16.9674 9.49787 15.7523 9.5 14.5C9.5 13.17 9.972 11.95 10.757 11H4.51H4.509Z" fill="#FBFBFB"/>
<path d="M15 19C16.1935 19 17.3381 18.5259 18.182 17.682C19.0259 16.8381 19.5 15.6935 19.5 14.5C19.5 13.3065 19.0259 12.1619 18.182 11.318C17.3381 10.4741 16.1935 10 15 10C13.8065 10 12.6619 10.4741 11.818 11.318C10.9741 12.1619 10.5 13.3065 10.5 14.5C10.5 15.6935 10.9741 16.8381 11.818 17.682C12.6619 18.5259 13.8065 19 15 19ZM15 12C15.1326 12 15.2598 12.0527 15.3536 12.1464C15.4473 12.2402 15.5 12.3674 15.5 12.5V14H17C17.1326 14 17.2598 14.0527 17.3536 14.1464C17.4473 14.2402 17.5 14.3674 17.5 14.5C17.5 14.6326 17.4473 14.7598 17.3536 14.8536C17.2598 14.9473 17.1326 15 17 15H15.5V16.5C15.5 16.6326 15.4473 16.7598 15.3536 16.8536C15.2598 16.9473 15.1326 17 15 17C14.8674 17 14.7402 16.9473 14.6464 16.8536C14.5527 16.7598 14.5 16.6326 14.5 16.5V15H13C12.8674 15 12.7402 14.9473 12.6464 14.8536C12.5527 14.7598 12.5 14.6326 12.5 14.5C12.5 14.3674 12.5527 14.2402 12.6464 14.1464C12.7402 14.0527 12.8674 14 13 14H14.5V12.5C14.5 12.3674 14.5527 12.2402 14.6464 12.1464C14.7402 12.0527 14.8674 12 15 12Z" fill="#FBFBFB"/>
</svg>
