<svg width="14" height="14" viewBox="0 0 14 14" fill="none" xmlns="http://www.w3.org/2000/svg">
<path d="M10.3486 12.9325L13.428 2.01496C13.4732 1.85456 13.4749 1.68499 13.4328 1.52373C13.3907 1.36247 13.3064 1.21534 13.1886 1.09749C13.0707 0.979644 12.9236 0.89534 12.7623 0.853262C12.6011 0.811183 12.4315 0.812851 12.2711 0.858093L1.35354 3.93737C1.16983 3.98917 1.00631 4.09581 0.884836 4.24304C0.763362 4.39027 0.689723 4.57107 0.67376 4.76127C0.657797 4.95148 0.700271 5.14202 0.795506 5.30744C0.89074 5.47285 1.0342 5.60526 1.2067 5.68696L6.22288 8.06309L8.59909 13.0793C8.64549 13.1777 8.70847 13.2674 8.78528 13.3443C8.90135 13.4591 9.04533 13.5416 9.20301 13.5837C9.3607 13.6259 9.52664 13.6262 9.68447 13.5846C9.8423 13.543 9.98657 13.461 10.103 13.3466C10.2195 13.2323 10.3041 13.0896 10.3486 12.9325L10.3486 12.9325ZM7.13998 7.80898L9.55803 5.39093C9.64594 5.30302 9.69533 5.18379 9.69533 5.05947C9.69533 4.93515 9.64594 4.81592 9.55803 4.72801C9.47013 4.64011 9.3509 4.59072 9.22658 4.59072C9.10226 4.59072 8.98303 4.64011 8.89512 4.72801L6.47706 7.14607L1.60855 4.83955L12.5257 1.76036L9.44613 12.6775L7.13998 7.80898Z" fill="#FBFBFB" fill-opacity="0.8"/>
</svg>
